# xmcd
#
# Track frame offsets: 
#        150
#        14079
#        22222
#        38477
#        52058
#        61642
#        77937
#        90972
#        101294
#        114536
#        127699
#        140875
#        150118
#        169493
#        187600
#        201349
#        212934
#        230892
#        243866
#        253566
#
# Disc length: 3515 seconds
#
# Revision: 0
# Processed by: cddbd v1.5.2PL0 Copyright (c) Steve Scherf et al.
# Submitted via: ExactAudioCopy v0.99pb5
#
DISCID=0a0db914
DTITLE=Foster and Allen - Christmas Memories
DYEAR=1900
DGENRE=
TTITLE0=At this time of Year
TTITLE1=Rudolph the Red Nosed Reindeer
TTITLE2=White Christmas
TTITLE3=The Lord is my Shepherd
TTITLE4=Winter Wonderland
TTITLE5=Mary's boy child
TTITLE6=Silent Night
TTITLE7=Snowflake
TTITLE8=Let it stay white
TTITLE9=What a friend we have in Jesus
TTITLE10=The Greatest Gift of All
TTITLE11=Jingle Bells
TTITLE12=Christmas Time in Ireland
TTITLE13=How greate thou art
TTITLE14=An old Christmas card
TTITLE15=The Christmas Polka
TTITLE16=I have a dream
TTITLE17=Silver Bells
TTITLE18=Christmas Medley
TTITLE19=Blue Christmas
EXTD=
EXTT0=
EXTT1=
EXTT2=
EXTT3=
EXTT4=
EXTT5=
EXTT6=
EXTT7=
EXTT8=
EXTT9=
EXTT10=
EXTT11=
EXTT12=
EXTT13=
EXTT14=
EXTT15=
EXTT16=
EXTT17=
EXTT18=
EXTT19=
PLAYORDER=
